<?xml version="1.0" encoding="utf-8"?>
<!-- Svg Vector Icons : http://www.onlinewebfonts.com/icon -->
<!DOCTYPE svg PUBLIC "-//W3C//DTD SVG 1.1//EN" "http://www.w3.org/Graphics/SVG/1.1/DTD/svg11.dtd">
<svg version="1.1" xmlns="http://www.w3.org/2000/svg" xmlns:xlink="http://www.w3.org/1999/xlink" x="0px" y="0px" viewBox="0 0 1000 1000" enable-background="new 0 0 1000 1000" xml:space="preserve">
<metadata> Svg Vector Icons : http://www.onlinewebfonts.com/icon </metadata>
<g><g transform="translate(0.000000,512.000000) scale(0.100000,-0.100000)"><path d="M5114.5,5009.5c-939.5-38.3-1846.4-327.9-2601.9-834.1c-404.6-270.3-876.2-713.3-1163.9-1096.7C879,2453.6,553,1713.5,399.6,919.7c-82.5-418-97.8-613.6-95.9-1150.4c0-421.8,7.7-554.1,42.2-780.4c224.3-1455.3,952.9-2506,2174.3-3138.8c738.2-383.5,1570.3-584.8,2561.6-623.1c667.3-24.9,1280.8,17.3,1792.8,124.6c237.8,49.9,699.8,191.7,868.6,266.5l99.7,44.1L7699.2-3985c-80.5,191.7-147.6,352.8-151.4,356.6c-2,3.8-115-32.6-251.2-78.6c-404.6-141.9-753.5-216.7-1223.3-262.7c-308.7-30.7-1041.2-26.9-1380.5,9.6C2412.9-3720.4,1116.7-2355.2,1116.7-192.4c0,1219.5,421.8,2318.1,1208,3148.4c552.2,584.8,1330.7,1014.3,2128.3,1173.4c1604.9,320.2,3186.7-255,3946-1436.1c270.4-418,425.6-895.4,462.1-1415c40.3-554.1-51.8-1207.9-232-1660.5c-143.8-362.4-291.4-604-511.9-834.1c-178.3-184.1-333.6-297.2-542.6-393.1c-210.9-97.8-389.2-140-604-143.8c-149.6-1.9-184.1,3.8-228.2,38.4c-99.7,72.9-128.5,130.4-138.1,279.9c-11.5,197.5,32.6,419.9,477.4,2412.1c210.9,943.4,389.2,1739.1,395,1769.8l11.5,51.8h-469.8h-469.8l-51.8-233.9c-28.8-128.5-55.6-237.8-59.4-241.6c-3.8-5.8-59.4,38.3-120.8,95.9c-354.7,326-807.2,494.7-1340.3,494.7c-958.7,0-1821.5-596.3-2316.2-1601c-180.2-368.1-322.1-845.6-372-1255.9c-113.1-939.5,55.6-1652.8,500.4-2120.7c226.3-235.8,427.6-360.5,755.4-462.1c159.1-47.9,193.7-51.8,525.4-51.8c312.5-1.9,373.9,3.8,517.7,42.2c352.8,95.9,701.8,304.9,987.5,588.7l178.3,176.4l21.1-97.8c74.8-333.6,349-596.3,720.9-692.2c151.5-38.4,544.6-38.4,778.5,1.9c517.7,88.2,991.3,322.1,1367.1,678.8c561.8,534.9,903.1,1280.8,1031.5,2262.5c32.6,251.2,32.6,1016.2-1.9,1246.3c-118.8,836-490.8,1587.6-1064.1,2157.1C7967.6,4420.9,7129.7,4813.9,6102,4965.4c-130.4,19.2-788,61.4-834.1,53.7C5258.3,5017.2,5189.3,5013.3,5114.5,5009.5z M5413.6,2033.7c245.4-63.3,512-214.8,717.1-410.3l105.5-99.7l-210.9-926.1c-218.6-968.3-251.2-1094.8-356.7-1321.1c-191.7-425.7-487-742-841.7-906.9c-205.2-95.9-327.9-122.7-556-122.7c-498.5,1.9-814.9,247.4-939.5,726.7c-82.4,318.3-78.6,824.5,9.6,1261.6c193.7,953,763.1,1695,1409.3,1835C4871,2097,5250.6,2075.9,5413.6,2033.7z"/></g></g>
</svg>