<?xml version="1.0" encoding="utf-8"?>
<!-- Svg Vector Icons : http://www.onlinewebfonts.com/icon -->
<!DOCTYPE svg PUBLIC "-//W3C//DTD SVG 1.1//EN" "http://www.w3.org/Graphics/SVG/1.1/DTD/svg11.dtd">
<svg version="1.1" xmlns="http://www.w3.org/2000/svg" xmlns:xlink="http://www.w3.org/1999/xlink" x="0px" y="0px" viewBox="0 0 1000 1000" enable-background="new 0 0 1000 1000" xml:space="preserve">
<metadata> Svg Vector Icons : http://www.onlinewebfonts.com/icon </metadata>
<g><g transform="matrix(1 0 0 -1 0 1536)"><path d="M990,762.6V648.3H638.9v114.3h73.3V1269h-3.3L537.2,648.3H404.3L234.8,1269h-4.4V762.6h73.8V648.3H10v114.3h37.7c7.7,0,15.5,3.6,23.5,10.7c8,7.1,12,13.9,12,20.5v481.8c0,6.6-4,13.9-12,21.9c-8,8-15.9,12-23.5,12H10v114.3h367.5l120.9-449h3.3l122,449H990v-114.3h-38.8c-6.9,0-14.4-4-22.4-12c-8-8-12-15.3-12-21.9V793.7c0-6.6,3.9-13.4,11.8-20.5c7.8-7.1,15.4-10.7,22.7-10.7H990z"/></g></g>
</svg>